<svg width="31" height="38" viewBox="0 0 31 38" fill="none" xmlns="http://www.w3.org/2000/svg">
<path d="M5.05506 0.0427352C3.92157 0.283505 3.25598 1.13785 2.95284 2.77664C2.66946 4.25232 2.91989 5.61928 3.52617 5.91441C3.98088 6.13965 4.87054 5.99208 5.39115 5.59598C6.01062 5.12997 6.83437 3.84069 7.21001 2.73004C7.49997 1.87569 7.53951 1.54949 7.40112 1.14562C7.26932 0.757278 6.79483 0.236904 6.45874 0.112636C6.12924 -0.00386546 5.4241 -0.0349325 5.05506 0.0427352Z" fill="#8D34C0"/>
<path d="M21.774 8.36095C20.7196 8.50852 19.2566 9.07549 18.0309 9.80557C16.614 10.6599 15.5266 11.623 14.1955 13.2074C11.5924 16.3064 9.74059 19.5529 9.04204 22.2324C8.89706 22.8071 8.86411 23.0634 8.86411 23.8479C8.85752 24.6789 8.87729 24.8187 9.00909 25.1139C9.09476 25.3003 9.2002 25.4634 9.25292 25.4944C9.57584 25.6342 9.92511 25.1993 10.4128 24.0421C11.2827 21.9839 12.627 19.9024 14.7227 17.3704C17.3126 14.2404 19.3093 13.1686 21.2468 13.8754C22.69 14.3957 23.5929 16.0268 23.9949 18.8306C24.2255 20.4849 24.1662 24.2285 23.7774 31.9875C23.6851 33.8282 23.7313 34.4495 24.0212 35.3893C24.1728 35.8553 24.2782 36.0573 24.6011 36.4378C25.1679 37.098 25.5501 37.2689 26.5189 37.2689C28.6936 37.2689 29.5503 36.2204 30.2356 32.7408C30.7233 30.2632 30.8749 28.1662 30.9671 22.7372C31.0396 18.6286 31.0133 18.1859 30.6706 16.5549C30.2159 14.4501 29.1944 12.322 28.0873 11.1725C26.3739 9.4017 25.0229 8.60172 23.3227 8.35318C22.6966 8.26775 22.4462 8.26775 21.774 8.36095Z" fill="#8D34C0"/>
<path d="M2.72219 13.6657C1.66119 13.9763 1.08786 15.0171 0.626552 17.4636C0.28387 19.2733 0.171839 20.6402 0.0532182 24.2751C-0.0983529 28.9817 0.0466281 30.473 0.844024 32.4768C1.24602 33.4709 1.75345 34.3641 2.26088 34.9544C3.19667 36.0417 4.56081 37.0048 5.6284 37.331C6.44556 37.5873 7.52633 37.5718 8.46212 37.2922C10.538 36.6708 12.2184 35.4981 13.8989 33.4865C15.6584 31.3739 16.7722 29.6341 17.563 27.7546C18.2417 26.1546 18.4988 24.8731 18.3208 23.9877C18.2352 23.5683 18.044 23.2654 17.8727 23.2654C17.6816 23.2654 17.3455 23.7935 16.9435 24.7178C16.1857 26.4575 15.1774 27.9876 13.3783 30.1079C12.2119 31.4749 11.7176 31.9486 10.9268 32.4535C8.79162 33.8204 6.86074 32.9428 6.10288 30.2555C5.67453 28.7487 5.61522 27.3507 5.78656 22.9547C5.86564 20.9664 5.9579 18.7063 5.99744 17.9219C6.05016 16.8733 6.05016 16.3685 5.99744 15.9957C5.8261 14.8773 5.47024 14.186 4.84418 13.8132C4.54763 13.6268 4.42242 13.6035 3.78319 13.5802C3.34824 13.5725 2.91989 13.6035 2.72219 13.6657Z" fill="#8D34C0"/>
</svg>
