<svg width="26" height="26" viewBox="0 0 26 26" fill="none" xmlns="http://www.w3.org/2000/svg">
<path fill-rule="evenodd" clip-rule="evenodd" d="M8.80081 16.6992C11.8348 19.7334 14.6528 21.4248 16.7498 22.3642C18.5803 23.1843 20.7411 22.5412 22.4258 20.8565L22.8115 20.4708L18.183 17.5254C17.3027 18.809 15.6395 19.5606 13.9789 18.8595C12.7204 18.3284 11.0561 17.4212 9.56754 15.9325C8.0789 14.4439 7.17166 12.7796 6.64046 11.5213C5.93949 9.86063 6.6911 8.19734 7.97463 7.31695L5.02925 2.68851L4.6435 3.07426C2.95884 4.75892 2.31584 6.91973 3.13585 8.75028C4.07519 10.8473 5.76676 13.6652 8.80081 16.6992ZM15.6797 24.7532C13.3044 23.6894 10.2188 21.8193 6.94976 18.5503C3.6807 15.2813 1.81077 12.1956 0.746811 9.82046C-0.661175 6.6773 0.623436 3.39222 2.79245 1.22321L3.17821 0.83745C4.36241 -0.346756 6.33867 -0.129821 7.23777 1.28309L10.9429 7.10539C11.1419 7.41803 11.1989 7.80035 11.1 8.15748C11.001 8.51462 10.7555 8.81308 10.4239 8.97881L9.59456 9.39352C9.02934 9.67612 8.91336 10.1744 9.05218 10.5032C9.49574 11.554 10.2373 12.9002 11.4186 14.0814C12.6 15.2628 13.946 16.0043 14.9968 16.4479C15.3257 16.5867 15.8239 16.4707 16.1065 15.9055L16.5213 15.0761C16.687 14.7447 16.9854 14.499 17.3426 14.4C17.6997 14.3011 18.082 14.3583 18.3947 14.5572L24.217 18.2623C25.6299 19.1614 25.8469 21.1377 24.6626 22.3218L24.2768 22.7076C22.1079 24.8766 18.8227 26.1612 15.6797 24.7532Z" fill="white"/>
</svg>
