<svg width="32" height="32" viewBox="0 0 32 32" fill="none" xmlns="http://www.w3.org/2000/svg">
<path fill-rule="evenodd" clip-rule="evenodd" d="M4.08244 15.7066C4.08244 8.6844 9.64272 2.99174 16.5016 2.99174C23.3606 2.99174 28.9209 8.6844 28.9209 15.7066C28.9209 22.7289 23.3606 28.4216 16.5016 28.4216C14.0584 28.4216 11.7842 27.7008 9.86536 26.4561C9.50825 26.2246 9.07067 26.1626 8.6656 26.2863L4.45891 27.5718L6.04279 23.7773C6.23 23.3289 6.19191 22.8152 5.94072 22.4008C4.76283 20.4575 4.08244 18.1657 4.08244 15.7066ZM16.5016 0C8.02885 0 1.16026 7.03211 1.16026 15.7066C1.16026 18.4562 1.85156 21.0444 3.06644 23.2948L0.547263 29.3295C0.324562 29.8631 0.423275 30.4803 0.800543 30.9132C1.17781 31.3463 1.76559 31.5168 2.30863 31.3508L8.88267 29.3423C11.1284 30.6601 13.731 31.4133 16.5016 31.4133C24.9745 31.4133 31.8431 24.3812 31.8431 15.7066C31.8431 7.03211 24.9745 0 16.5016 0ZM19.8512 18.9712L17.931 20.356C17.0317 19.8315 16.0375 19.0994 15.0401 18.0784C14.0033 17.0169 13.2347 15.921 12.6679 14.9158L13.8882 13.8554C14.4119 13.4003 14.5552 12.6331 14.2326 12.0123L12.6777 9.02052C12.4684 8.61767 12.0909 8.3347 11.6525 8.25203C11.2142 8.16939 10.7629 8.2961 10.4271 8.59616L9.96614 9.00806C8.85757 9.99861 8.20194 11.6264 8.74533 13.2745C9.30868 14.9831 10.5109 17.6722 12.9739 20.1938C15.6237 22.9067 18.3153 23.9751 19.8893 24.39C21.1575 24.7242 22.3577 24.2762 23.2034 23.5707L24.0676 22.8497C24.4372 22.5414 24.6367 22.0677 24.6019 21.5808C24.567 21.0939 24.3022 20.655 23.8925 20.405L21.4404 18.9092C20.9451 18.6071 20.3227 18.6314 19.8512 18.9712Z" fill="white"/>
</svg>
